<svg width="12" height="11" viewBox="0 0 12 11" fill="none" xmlns="http://www.w3.org/2000/svg">
<g clip-path="url(#clip0_1610_2411)">
<path d="M4.31665 0.696091C4.67798 0.696091 4.97089 0.989001 4.97089 1.35033V1.78649H7.15168V1.35033C7.15168 0.989001 7.4446 0.696091 7.80592 0.696091C8.16723 0.696091 8.46015 0.989001 8.46015 1.35033V1.78649H9.11439C9.83706 1.78649 10.4229 2.37231 10.4229 3.09496V3.96727H1.69971V3.09496C1.69971 2.37231 2.28553 1.78649 3.00818 1.78649H3.66242V1.35033C3.66242 0.989001 3.95533 0.696091 4.31665 0.696091Z" fill="#9870F4"/>
<path d="M1.69971 9.20139V4.83981H10.4229V9.20139C10.4229 9.92406 9.83706 10.5099 9.11439 10.5099H3.00818C2.28553 10.5099 1.69971 9.92406 1.69971 9.20139Z" fill="#9870F4"/>
</g>
<defs>
<clipPath id="clip0_1610_2411">
<rect width="10.4678" height="10.4678" fill="white" transform="translate(0.827393 0.478134)"/>
</clipPath>
</defs>
</svg>
