<svg width="17" height="13" viewBox="0 0 17 13" fill="none" xmlns="http://www.w3.org/2000/svg">
<path d="M5.45414 12.2033C5.35264 12.1805 5.28363 12.1547 5.20238 12.1094C4.97311 11.9814 4.81378 11.7756 4.73785 11.5096C4.71723 11.4373 4.71297 11.4015 4.70926 11.269C4.7056 11.1381 4.70779 11.0989 4.72301 11.0227C4.73297 10.9729 4.75637 10.8927 4.77501 10.8444L4.8089 10.7568L3.10985 8.998L1.41079 7.23923L1.34741 7.26898C1.31255 7.28534 1.24501 7.3095 1.19732 7.32268C1.12139 7.34366 1.09194 7.34666 0.960218 7.34688C0.794926 7.3471 0.738005 7.33763 0.60333 7.28718C0.362549 7.19699 0.144799 6.97159 0.0576745 6.72235C0.00894339 6.58294 -0.000254411 6.52402 5.27238e-06 6.35291C0.000209832 6.21479 0.00297239 6.1866 0.0244556 6.10309C0.0535479 5.98998 0.121543 5.84239 0.18322 5.75846C0.238958 5.68261 0.338915 5.58428 0.413783 5.53165C0.67219 5.35 1.04665 5.31586 1.344 5.44685L1.41064 5.4762L3.11035 3.71674L4.81007 1.95729L4.78629 1.90229C4.77321 1.87205 4.7515 1.80909 4.73806 1.76238C4.71716 1.68977 4.71298 1.65488 4.70926 1.52176C4.7056 1.391 4.70779 1.35172 4.72292 1.27643C4.7625 1.07951 4.84157 0.928199 4.97963 0.785165C5.02753 0.73553 5.08966 0.679492 5.11769 0.660636C5.30125 0.537146 5.4892 0.485256 5.71393 0.496035C6.06924 0.513075 6.37192 0.717596 6.52552 1.04442C6.63288 1.27288 6.6503 1.57227 6.57038 1.81549C6.46926 2.12326 6.22458 2.35882 5.91447 2.44696C5.85852 2.46287 5.80761 2.46872 5.6957 2.4721C5.57408 2.47578 5.53532 2.47342 5.46234 2.45782C5.41422 2.44754 5.33672 2.42334 5.29013 2.40405L5.20543 2.36896L3.50676 4.1274L1.80809 5.88584L1.84383 5.9802C1.89756 6.12203 1.91106 6.21333 1.90593 6.40009C1.9023 6.5324 1.89809 6.56803 1.87793 6.6373C1.86488 6.68213 1.84364 6.74353 1.83073 6.77375L1.80726 6.82868L3.50925 8.59051L5.21124 10.3523L5.25293 10.3305C5.47762 10.213 5.82501 10.2123 6.06877 10.3289C6.32759 10.4527 6.51939 10.6896 6.58976 10.9724C6.61911 11.0904 6.62813 11.2525 6.61214 11.3749C6.55809 11.7884 6.261 12.1199 5.86889 12.2041C5.75822 12.2279 5.562 12.2275 5.45414 12.2033ZM5.59752 12.1974C5.59449 12.1943 5.58663 12.194 5.58005 12.1967C5.57278 12.1997 5.57494 12.2019 5.58555 12.2024C5.59516 12.2028 5.60055 12.2006 5.59752 12.1974ZM5.75248 12.1974C5.74945 12.1943 5.74159 12.194 5.73501 12.1967C5.72774 12.1997 5.7299 12.2019 5.74052 12.2024C5.75013 12.2028 5.75551 12.2006 5.75248 12.1974ZM4.73113 11.305C4.72822 11.2974 4.72606 11.2997 4.72562 11.3107C4.72522 11.3206 4.72738 11.3262 4.73041 11.323C4.73344 11.3199 4.73376 11.3118 4.73113 11.305ZM6.60018 11.2102C6.59815 11.1932 6.59645 11.2048 6.5964 11.236C6.59635 11.2671 6.59801 11.281 6.60009 11.2668C6.60217 11.2526 6.60221 11.2271 6.60018 11.2102ZM4.73113 11.1446C4.72822 11.137 4.72606 11.1393 4.72562 11.1503C4.72522 11.1602 4.72738 11.1658 4.73041 11.1626C4.73344 11.1595 4.73376 11.1514 4.73113 11.1446ZM5.69342 10.262C5.67713 10.2599 5.65046 10.2599 5.63417 10.262C5.61788 10.2641 5.63121 10.2658 5.6638 10.2658C5.69638 10.2658 5.70971 10.264 5.69342 10.262ZM0.967055 7.32774C0.958281 7.32536 0.943924 7.32536 0.935151 7.32774C0.926377 7.33011 0.933555 7.33205 0.951103 7.33205C0.96865 7.33205 0.975829 7.33011 0.967055 7.32774ZM0.0186575 6.34123C0.0164773 6.32949 0.0146104 6.33687 0.0145092 6.35763C0.014408 6.37839 0.0161921 6.38799 0.0184735 6.37897C0.0207549 6.36995 0.0208387 6.35297 0.0186575 6.34123ZM5.59752 2.45021C5.59449 2.44708 5.58663 2.44675 5.58005 2.44943C5.57278 2.45244 5.57494 2.45468 5.58555 2.45514C5.59516 2.45558 5.60055 2.45336 5.59752 2.45021ZM5.74811 2.44966C5.74185 2.44704 5.73159 2.44704 5.72532 2.44966C5.71906 2.45227 5.72419 2.45441 5.73672 2.45441C5.74925 2.45441 5.75438 2.45227 5.74811 2.44966ZM4.73113 1.55773C4.72822 1.5502 4.72606 1.55244 4.72562 1.56343C4.72522 1.57338 4.72738 1.57895 4.73041 1.57581C4.73344 1.57268 4.73376 1.56454 4.73113 1.55773ZM6.60018 1.46295C6.59815 1.44599 6.59645 1.45759 6.5964 1.48873C6.59635 1.51987 6.59801 1.53375 6.60009 1.51957C6.60217 1.50539 6.60221 1.47991 6.60018 1.46295ZM4.73113 1.39732C4.72822 1.3898 4.72606 1.39203 4.72562 1.40302C4.72522 1.41297 4.72738 1.41854 4.73041 1.4154C4.73344 1.41227 4.73376 1.40413 4.73113 1.39732ZM5.69342 0.514732C5.67713 0.512637 5.65046 0.512637 5.63417 0.514732C5.61788 0.516828 5.63121 0.518533 5.6638 0.518533C5.69638 0.518533 5.70971 0.516816 5.69342 0.514732ZM10.3218 12.2036C10.1039 12.1557 9.8998 12.0213 9.76517 11.8372C9.63068 11.6533 9.5652 11.4236 9.57692 11.1767C9.59767 10.7399 9.87882 10.3803 10.2843 10.2719C10.3928 10.2429 10.5566 10.2333 10.6715 10.2492C10.7603 10.2614 10.8776 10.2967 10.9423 10.3305L10.984 10.3523L12.686 8.5905L14.388 6.82868L14.3645 6.77374C14.3516 6.74352 14.3304 6.68212 14.3173 6.63729C14.2972 6.56802 14.293 6.53239 14.2893 6.40008C14.2842 6.21332 14.2977 6.12202 14.3514 5.98019L14.3872 5.88583L12.6885 4.12739L10.9898 2.36896L10.9084 2.40266C10.8106 2.44319 10.7249 2.46474 10.628 2.4732L10.5559 2.4795L9.12003 7.02049C7.75463 11.3387 7.68315 11.5615 7.66302 11.5615C7.6459 11.5615 7.64193 11.5565 7.64226 11.5355C7.64248 11.5213 8.17113 9.44173 8.81703 6.91434L9.99137 2.31909L9.95849 2.29078C9.8249 2.17579 9.74457 2.07672 9.6808 1.94828C9.60041 1.78639 9.56773 1.62313 9.57692 1.4295C9.59465 1.05623 9.80152 0.737092 10.1265 0.581675C10.3307 0.48401 10.6084 0.466366 10.8265 0.5372C10.982 0.587723 11.0938 0.658913 11.2156 0.78516C11.3537 0.928231 11.4328 1.07967 11.4723 1.27643C11.4872 1.35107 11.4895 1.39134 11.486 1.51704C11.4815 1.67843 11.4669 1.75685 11.4199 1.87317C11.4068 1.90565 11.3942 1.93859 11.3919 1.94637C11.3892 1.95558 11.9812 2.57478 13.0862 3.71836L14.7846 5.47619L14.8512 5.44684C15.1486 5.31586 15.5231 5.35 15.7815 5.53164C15.8563 5.58427 15.9563 5.6826 16.012 5.75845C16.0737 5.84238 16.1417 5.98998 16.1708 6.10308C16.1923 6.1866 16.195 6.21478 16.1952 6.35291C16.1955 6.52401 16.1863 6.58293 16.1376 6.72234C16.0504 6.97158 15.8327 7.19699 15.5919 7.28717C15.4572 7.33762 15.4003 7.34714 15.235 7.34687C15.1033 7.34665 15.0739 7.34365 14.9979 7.32267C14.9502 7.3095 14.8827 7.28533 14.8478 7.26897L14.7845 7.23922L13.0854 8.99799L11.3863 10.7568L11.4202 10.8444C11.4389 10.8927 11.4623 10.9729 11.4722 11.0227C11.4875 11.0989 11.4897 11.1381 11.486 11.269C11.4823 11.4015 11.478 11.4373 11.4574 11.5096C11.3523 11.8779 11.0783 12.1375 10.7206 12.2077C10.6195 12.2276 10.4214 12.2255 10.3218 12.2036ZM10.4652 12.1974C10.4621 12.1943 10.4543 12.194 10.4477 12.1966C10.4404 12.1997 10.4426 12.2019 10.4532 12.2023C10.4628 12.2028 10.4682 12.2006 10.4652 12.1974ZM10.6201 12.1974C10.6171 12.1943 10.6092 12.194 10.6027 12.1966C10.5954 12.1997 10.5976 12.2019 10.6082 12.2023C10.6178 12.2028 10.6232 12.2006 10.6201 12.1974ZM7.7013 11.4288C7.70973 11.4025 7.71428 11.3785 7.7114 11.3756C7.7054 11.3694 7.69271 11.4011 7.6833 11.4459C7.6735 11.4926 7.68406 11.4825 7.7013 11.4288ZM11.4675 11.3049C11.4645 11.2974 11.4624 11.2997 11.4619 11.3106C11.4615 11.3206 11.4637 11.3262 11.4667 11.323C11.4698 11.3199 11.47 11.3118 11.4675 11.3049ZM9.59916 11.2102C9.59714 11.1932 9.59544 11.2048 9.59539 11.2359C9.59534 11.2671 9.59699 11.281 9.59908 11.2668C9.60116 11.2526 9.60119 11.2271 9.59916 11.2102ZM11.4675 11.1445C11.4645 11.137 11.4624 11.1392 11.4619 11.1502C11.4615 11.1602 11.4637 11.1658 11.4667 11.1626C11.4698 11.1595 11.47 11.1514 11.4675 11.1445ZM10.5611 10.262C10.5448 10.2599 10.5181 10.2599 10.5018 10.262C10.4855 10.264 10.4989 10.2658 10.5315 10.2658C10.564 10.2658 10.5774 10.264 10.5611 10.262ZM15.2601 7.32773C15.2513 7.32535 15.237 7.32535 15.2282 7.32773C15.2194 7.3301 15.2266 7.33204 15.2441 7.33204C15.2617 7.33204 15.2689 7.3301 15.2601 7.32773ZM16.1804 6.34122C16.1782 6.32948 16.1763 6.33686 16.1762 6.35762C16.1761 6.37838 16.1779 6.38798 16.1802 6.37896C16.1825 6.36994 16.1825 6.35296 16.1804 6.34122ZM10.6201 2.4502C10.6171 2.44707 10.6092 2.44674 10.6027 2.44942C10.5954 2.45243 10.5976 2.45467 10.6082 2.45513C10.6178 2.45557 10.6232 2.45335 10.6201 2.4502ZM11.4675 1.55773C11.4645 1.5502 11.4624 1.55244 11.4619 1.56342C11.4615 1.57338 11.4637 1.57895 11.4667 1.57581C11.4698 1.57268 11.47 1.56454 11.4675 1.55773ZM9.59916 1.46295C9.59714 1.44599 9.59544 1.45759 9.59539 1.48873C9.59534 1.51987 9.59699 1.53374 9.59908 1.51957C9.60116 1.50539 9.60119 1.47991 9.59916 1.46295ZM11.4675 1.39732C11.4645 1.3898 11.4624 1.39203 11.4619 1.40302C11.4615 1.41297 11.4637 1.41854 11.4667 1.4154C11.4698 1.41227 11.47 1.40413 11.4675 1.39732ZM10.5611 0.514731C10.5448 0.512636 10.5181 0.512636 10.5018 0.514731C10.4855 0.516827 10.4989 0.518531 10.5315 0.518531C10.564 0.518531 10.5774 0.516816 10.5611 0.514731Z" fill="white"/>
</svg>
