<svg width="11" height="11" viewBox="0 0 11 11" fill="none" xmlns="http://www.w3.org/2000/svg">
<path d="M7.69187 9.24243C7.69187 8.54147 6.74481 7.97326 5.57658 7.97326C4.40833 7.97326 3.46128 8.54147 3.46128 9.24243M9.38411 7.97343C9.38411 7.45298 8.86201 7.00568 8.11493 6.80984M1.76904 7.97343C1.76904 7.45298 2.29114 7.00568 3.03822 6.80984M8.11493 5.11173C8.37456 4.87934 8.53799 4.54161 8.53799 4.16572C8.53799 3.46478 7.96978 2.89655 7.26881 2.89655C6.94373 2.89655 6.64725 3.01875 6.42269 3.21972M3.03822 5.11173C2.77857 4.87934 2.61516 4.54161 2.61516 4.16572C2.61516 3.46478 3.18339 2.89655 3.88434 2.89655C4.2094 2.89655 4.50591 3.01875 4.73046 3.21972M5.57658 6.70408C4.87561 6.70408 4.3074 6.13587 4.3074 5.4349C4.3074 4.73396 4.87561 4.16572 5.57658 4.16572C6.27754 4.16572 6.84575 4.73396 6.84575 5.4349C6.84575 6.13587 6.27754 6.70408 5.57658 6.70408Z" stroke="white" stroke-opacity="0.6" stroke-width="0.8" stroke-linecap="round" stroke-linejoin="round"/>
</svg>
